<svg width="32" height="36" viewBox="0 0 32 36" fill="none" xmlns="http://www.w3.org/2000/svg">
<path d="M23.1665 17C23.6548 17 24.1332 17.04 24.5998 17.12L24.8898 18.3133C25.0972 19.1726 25.6374 19.9143 26.3916 20.3753C27.1458 20.8363 28.0522 20.9789 28.9115 20.7717L29.0748 20.7283L30.0765 20.43C30.6815 21.2083 31.1648 22.0917 31.4998 23.0467L30.7548 23.7633C30.1526 24.3416 29.7893 25.1249 29.7369 25.9582C29.6844 26.7914 29.9466 27.6141 30.4715 28.2633L30.7082 28.5233L31.4998 29.285C31.1665 30.2417 30.6832 31.1233 30.0782 31.9017L29.0748 31.605C28.655 31.4809 28.2149 31.4407 27.7796 31.4867C27.3443 31.5327 26.9222 31.664 26.5376 31.873C26.1531 32.0821 25.8134 32.3649 25.5381 32.7053C25.2628 33.0456 25.0573 33.4369 24.9332 33.8567L24.8898 34.02L24.6015 35.2133C23.651 35.3737 22.6803 35.3737 21.7298 35.2133L21.4432 34.02C21.2358 33.1608 20.6956 32.4191 19.9414 31.9581C19.1872 31.4971 18.2808 31.3545 17.4215 31.5617L17.2582 31.605L16.2548 31.9017C15.6426 31.112 15.1625 30.2283 14.8332 29.285L15.5782 28.5683C16.1795 27.9902 16.5421 27.2076 16.5946 26.3751C16.6471 25.5426 16.3855 24.7207 15.8615 24.0717L15.6248 23.81L14.8332 23.0483C15.1665 22.0917 15.6498 21.21 16.2548 20.4317L17.2582 20.7283C17.678 20.8525 18.1181 20.8927 18.5534 20.8467C18.9888 20.8007 19.4108 20.6694 19.7954 20.4603C20.1799 20.2512 20.5196 19.9684 20.7949 19.6281C21.0702 19.2877 21.2757 18.8965 21.3998 18.4767L21.4432 18.3133L21.7298 17.12C22.1965 17.0417 22.6782 17 23.1665 17ZM16.9165 0.333344C17.9111 0.333344 18.8649 0.728432 19.5682 1.43169C20.2714 2.13495 20.6665 3.08878 20.6665 4.08334V15.6233C18.1548 16.2204 15.9387 17.6944 14.417 19.78C12.8954 21.8656 12.1683 24.4259 12.3665 27H8.58317C8.26646 27.0001 7.9616 27.1204 7.73019 27.3366C7.49877 27.5528 7.35805 27.8488 7.33646 28.1648C7.31487 28.4808 7.41403 28.7932 7.61389 29.0388C7.81375 29.2845 8.09942 29.4452 8.41317 29.4883L8.58317 29.5H12.7498L12.8532 29.495C13.3584 31.0569 14.2121 32.4834 15.3498 33.6667H4.4165C3.42194 33.6667 2.46812 33.2716 1.76485 32.5683C1.06159 31.8651 0.666504 30.9112 0.666504 29.9167V4.08334C0.666504 3.08878 1.06159 2.13495 1.76485 1.43169C2.46812 0.728432 3.42194 0.333344 4.4165 0.333344H16.9165ZM23.1665 23.6667C21.8332 23.6667 20.7498 24.7867 20.7498 26.1667C20.7498 27.5467 21.8332 28.6667 23.1665 28.6667C24.4998 28.6667 25.5832 27.5467 25.5832 26.1667C25.5832 24.7867 24.4998 23.6667 23.1665 23.6667Z" fill="white"/>
</svg>
