<svg width="34" height="40" viewBox="0 0 34 40" fill="none" xmlns="http://www.w3.org/2000/svg">
<path d="M33.3585 7.73538C33.2087 7.56433 33.0252 7.42604 32.8195 7.32915C32.6138 7.23226 32.3904 7.17887 32.1631 7.17231C28.6323 7.08 24.1646 3.30461 21.2108 1.82308C19.3862 0.910767 18.1816 0.309229 17.277 0.150768C17.0933 0.124002 16.9066 0.124521 16.7231 0.152306C15.8185 0.310768 14.6139 0.912306 12.7908 1.82461C9.83695 3.30461 5.36926 7.08 1.83849 7.17231C1.61106 7.17921 1.38747 7.23274 1.18158 7.3296C0.975689 7.42646 0.791888 7.56457 0.641566 7.73538C0.329986 8.0879 0.169227 8.54863 0.193874 9.01846C0.952335 24.4385 6.4831 33.9815 16.1877 39.5277C16.44 39.6708 16.72 39.7446 16.9985 39.7446C17.2769 39.7446 17.5569 39.6708 17.8108 39.5277C27.5154 33.9815 33.0446 24.4385 33.8046 9.01846C33.8307 8.5487 33.6704 8.08762 33.3585 7.73538ZM25.6416 13.8L17.4523 25.8846C17.1585 26.3185 16.6969 26.6062 16.24 26.6062C15.7816 26.6062 15.2723 26.3554 14.9508 26.0338L9.17849 20.26C8.99003 20.0708 8.88422 19.8147 8.88422 19.5477C8.88422 19.2807 8.99003 19.0245 9.17849 18.8354L10.6046 17.4062C10.7942 17.2184 11.0502 17.1131 11.3169 17.1131C11.5837 17.1131 11.8397 17.2184 12.0293 17.4062L15.7831 21.16L22.3046 11.5338C22.4555 11.3136 22.6875 11.1619 22.9498 11.1121C23.2121 11.0622 23.4834 11.1181 23.7046 11.2677L25.3739 12.4C25.5944 12.5507 25.7463 12.7825 25.7965 13.0448C25.8467 13.3071 25.791 13.5786 25.6416 13.8Z" fill="white"/>
</svg>
