<svg width="34" height="34" viewBox="0 0 34 34" fill="none" xmlns="http://www.w3.org/2000/svg">
<rect width="34" height="34" rx="7" fill="white" fill-opacity="0.16"/>
<g clip-path="url(#clip0_3709_5061)">
<path d="M20.75 9.5H13.25C11.1789 9.5 9.5 11.1789 9.5 13.25V20.75C9.5 22.8211 11.1789 24.5 13.25 24.5H20.75C22.8211 24.5 24.5 22.8211 24.5 20.75V13.25C24.5 11.1789 22.8211 9.5 20.75 9.5Z" stroke="white" stroke-width="2" stroke-linecap="round" stroke-linejoin="round"/>
<path d="M19.9998 16.5277C20.0923 17.1519 19.9857 17.7894 19.6951 18.3495C19.4045 18.9096 18.9446 19.3638 18.381 19.6475C17.8174 19.9312 17.1786 20.0299 16.5556 19.9297C15.9326 19.8294 15.3571 19.5353 14.9109 19.0891C14.4647 18.6429 14.1706 18.0674 14.0703 17.4444C13.9701 16.8214 14.0688 16.1826 14.3525 15.619C14.6362 15.0554 15.0904 14.5955 15.6505 14.3049C16.2106 14.0143 16.8481 13.9077 17.4723 14.0002C18.109 14.0946 18.6984 14.3913 19.1536 14.8465C19.6087 15.3016 19.9054 15.891 19.9998 16.5277Z" stroke="white" stroke-width="2" stroke-linecap="round" stroke-linejoin="round"/>
<path d="M21.125 12.875H21.134" stroke="white" stroke-width="2" stroke-linecap="round" stroke-linejoin="round"/>
</g>
<defs>
<clipPath id="clip0_3709_5061">
<rect width="18" height="18" fill="white" transform="translate(8 8)"/>
</clipPath>
</defs>
</svg>
