<svg width="34" height="34" viewBox="0 0 34 34" fill="none" xmlns="http://www.w3.org/2000/svg">
<rect width="34" height="34" rx="7" fill="white" fill-opacity="0.16"/>
<path d="M11.7377 13.3977C12.644 13.3977 13.3787 12.663 13.3787 11.7567C13.3787 10.8504 12.644 10.1157 11.7377 10.1157C10.8314 10.1157 10.0967 10.8504 10.0967 11.7567C10.0967 12.663 10.8314 13.3977 11.7377 13.3977Z" fill="white"/>
<path d="M14.9278 14.641V23.7453H17.7545V19.243C17.7545 18.055 17.978 16.9045 19.451 16.9045C20.9038 16.9045 20.9218 18.2628 20.9218 19.318V23.746H23.75V18.7533C23.75 16.3008 23.222 14.416 20.3555 14.416C18.9793 14.416 18.0568 15.1713 17.6795 15.886H17.6413V14.641H14.9278ZM10.3213 14.641H13.1525V23.7453H10.3213V14.641Z" fill="white"/>
</svg>
