<svg data-name="300 x 300" xmlns="http://www.w3.org/2000/svg" xmlns:xlink="http://www.w3.org/1999/xlink" width="300" height="300" viewBox="0 0 300 300"><defs><linearGradient id="c" x1=".502" y1="1.174" x2=".496" y2="-.129" gradientUnits="objectBoundingBox"><stop offset="0" stop-color="#267c26"/><stop offset="1" stop-color="#31cf74"/></linearGradient><linearGradient id="a" x1=".494" y1="1.227" x2=".507" y2="-.168" gradientUnits="objectBoundingBox"><stop offset="0" stop-color="#1f5507"/><stop offset="1" stop-color="#6fdb04"/></linearGradient><linearGradient id="d" x1=".502" y1="1.176" x2=".496" y2="-.127" gradientUnits="objectBoundingBox"><stop offset="0" stop-color="#267c26"/><stop offset="1" stop-color="#4ad585"/></linearGradient><linearGradient id="e" x1=".494" y1="1.226" x2=".506" y2="-.169" xlink:href="#a"/><clipPath id="b"><path data-name="Rectangle 1848" transform="translate(1072.948 1085.948)" fill="none" d="M0 0h300v300H0z"/></clipPath></defs><g data-name="Mask Group 15" transform="translate(-1072.948 -1085.948)" clip-path="url(#b)"><g data-name="Group 806"><path data-name="Path 1177" d="M283.328 342.218c28.915-37.863 73.672-37.848 105.688-60.733 51.8-37.021 47.782-127.65 14.305-177.317-13.1 93.438-119.992 69.726-119.992 238.049" transform="translate(944.685 1012.78)" fill="url(#c)"/><path data-name="Path 1178" d="M1228.013 1354.996c28.914-37.863 73.671-37.848 105.688-60.733 19.887-14.213 31.54-36.336 36.462-61.006a127.573 127.573 0 00-133.47 49.623c-5.432 19.306-8.679 42.787-8.679 72.112" fill="#267c26" opacity=".3"/><path data-name="Path 1179" d="M1228.013 1354.998c28.915-37.863 73.672-37.848 105.688-60.733 51.8-37.021 47.782-127.65 14.305-177.317 32.245 170.659-102.51 141.706-119.992 238.049" fill="#267c26" opacity=".3"/><path data-name="Path 1180" d="M1309.185 1184.529c-35.324 32.353-81.17 60.228-81.17 170.469 14.405-30.927 44.885-51.863 81.17-62.722z" opacity=".3"/><path data-name="Path 1181" d="M352.874 108.319v157.488c-31.093 15.114-57.2 39.63-69.546 72.247V221.279c0-50.222 28.772-89.417 69.546-112.96" transform="translate(944.685 1016.945)" fill="url(#a)"/><path data-name="Path 1182" d="M1228.013 1354.994c0-95.327 34.278-129.058 66.393-157.356v83.146c-26.559 13.3-56.263 39.545-66.393 74.21" fill="#1d5204" opacity=".3"/><path data-name="Path 1183" d="M1228.013 1260.762c0-50.216 28.772-89.415 69.546-112.959v-22.539c-40.776 23.544-69.546 62.738-69.546 112.96z" fill="#dbe665" opacity=".3"/><path data-name="Path 1184" d="M1297.559 1125.264v157.488c-31.093 15.114-57.2 39.63-69.546 72.247 10.129-34.665 39.831-60.911 66.393-74.21v-153.651q1.566-.949 3.154-1.873" fill="#ecf955" opacity=".3"/><path data-name="Path 1185" d="M350.863 342.218c-28.91-37.863-73.669-37.848-105.685-60.733-51.8-37.021-47.781-127.65-14.305-177.317 13.1 93.438 119.99 69.726 119.99 238.049" transform="translate(867.017 1012.78)" fill="url(#d)"/><path data-name="Path 1186" d="M1217.879 1354.996c-28.91-37.863-73.669-37.848-105.686-60.733-19.887-14.213-31.541-36.336-36.464-61.006a127.573 127.573 0 01133.47 49.623c5.432 19.306 8.679 42.787 8.679 72.112" fill="#267c26" opacity=".3"/><path data-name="Path 1187" d="M1217.88 1354.998c-28.91-37.863-73.669-37.848-105.685-60.733-51.8-37.021-47.781-127.65-14.305-177.317-32.247 170.659 102.51 141.706 119.99 238.049" fill="#267c26" opacity=".3"/><path data-name="Path 1188" d="M1136.713 1184.529c35.322 32.353 81.166 60.228 81.166 170.469-14.409-30.927-44.883-51.863-81.166-62.722z" opacity=".3"/><path data-name="Path 1189" d="M243.559 108.319v157.488c31.093 15.114 57.2 39.63 69.544 72.247V221.279c0-50.222-28.772-89.417-69.544-112.96" transform="translate(904.777 1016.945)" fill="url(#e)"/><path data-name="Path 1190" d="M1217.879 1354.994c0-95.327-34.276-129.058-66.39-157.356v83.146c26.561 13.3 56.262 39.545 66.39 74.21" fill="#1d5204" opacity=".3"/><path data-name="Path 1191" d="M1217.877 1260.762c0-50.216-28.772-89.415-69.544-112.959v-22.539c40.772 23.544 69.544 62.738 69.544 112.96z" fill="#dbe665" opacity=".3"/><path data-name="Path 1192" d="M1148.336 1125.264v157.488c31.094 15.114 57.2 39.63 69.544 72.247-10.128-34.665-39.831-60.911-66.39-74.21v-153.651a204.562 204.562 0 00-3.154-1.873" fill="#ecf955" opacity=".3"/></g></g></svg>