<svg width="34" height="34" viewBox="0 0 34 34" fill="none" xmlns="http://www.w3.org/2000/svg">
<rect width="34" height="34" rx="7" fill="white" fill-opacity="0.16"/>
<path d="M25.25 10.2502C24.5318 10.7568 23.7366 11.1443 22.895 11.3977C22.4433 10.8784 21.843 10.5102 21.1753 10.3432C20.5076 10.1761 19.8046 10.2181 19.1616 10.4636C18.5185 10.709 17.9663 11.146 17.5797 11.7155C17.1931 12.285 16.9908 12.9595 17 13.6477V14.3977C15.682 14.4319 14.376 14.1396 13.1983 13.5468C12.0206 12.954 11.0077 12.0792 10.25 11.0002C10.25 11.0002 7.25 17.7502 14 20.7502C12.4554 21.7987 10.6154 22.3244 8.75 22.2502C15.5 26.0002 23.75 22.2502 23.75 13.6252C23.7493 13.4163 23.7292 13.2079 23.69 13.0027C24.4555 12.2478 24.9956 11.2948 25.25 10.2502Z" fill="white"/>
</svg>
